P3
2 2
255
150 0 0  0 1 0
0 0 255  0 0 0
